<?xml version="1.0" encoding="utf-8"?>
<!-- Generator: Adobe Illustrator 24.3.0, SVG Export Plug-In . SVG Version: 6.00 Build 0)  -->
<svg version="1.1" id="katman_1" xmlns="http://www.w3.org/2000/svg" xmlns:xlink="http://www.w3.org/1999/xlink" x="0px" y="0px"
	 viewBox="0 0 966.8 129.33" style="enable-background:new 0 0 966.8 129.33;" xml:space="preserve">
<style type="text/css">
	.st0{fill:url(#SVGID_1_);}
	.st1{fill:url(#SVGID_2_);}
	.st2{fill:url(#SVGID_3_);}
	.st3{fill:url(#SVGID_4_);}
	.st4{fill:url(#SVGID_5_);}
	.st5{fill:url(#SVGID_6_);}
	.st6{fill:url(#SVGID_7_);}
	.st7{fill:url(#SVGID_8_);}
	.st8{fill:url(#SVGID_9_);}
	.st9{fill:url(#SVGID_10_);}
	.st10{fill:url(#SVGID_11_);}
	.st11{fill:url(#SVGID_12_);}
	.st12{fill:url(#SVGID_13_);}
	.st13{fill:url(#SVGID_14_);}
	.st14{fill:url(#SVGID_15_);}
	.st15{fill:url(#SVGID_16_);}
	.st16{fill:url(#SVGID_17_);}
	.st17{fill:url(#SVGID_18_);}
	.st18{fill:url(#SVGID_19_);}
	.st19{fill:url(#SVGID_20_);}
	.st20{fill:url(#SVGID_21_);}
	.st21{fill:url(#SVGID_22_);}
	.st22{fill:url(#SVGID_23_);}
	.st23{fill:url(#SVGID_24_);}
	.st24{fill:url(#SVGID_25_);}
	.st25{fill:url(#SVGID_26_);}
	.st26{fill:url(#SVGID_27_);}
	.st27{fill:url(#SVGID_28_);}
	.st28{fill:url(#SVGID_29_);}
	.st29{fill:url(#SVGID_30_);}
	.st30{fill:url(#SVGID_31_);}
	.st31{fill:url(#SVGID_32_);}
	.st32{fill:url(#SVGID_33_);}
	.st33{fill:url(#SVGID_34_);}
	.st34{fill:url(#SVGID_35_);}
	.st35{fill:url(#SVGID_36_);}
	.st36{fill:url(#SVGID_37_);}
	.st37{fill:url(#SVGID_38_);}
	.st38{fill:url(#SVGID_39_);}
	.st39{fill:url(#SVGID_40_);}
	.st40{fill:url(#SVGID_41_);}
	.st41{fill:url(#SVGID_42_);}
	.st42{fill:#FFFFFF;}
	.st43{fill:url(#SVGID_43_);}
	.st44{fill:url(#SVGID_44_);}
	.st45{fill:url(#SVGID_45_);}
	.st46{fill:url(#SVGID_46_);}
	.st47{fill:url(#SVGID_47_);}
	.st48{fill:url(#SVGID_48_);}
	.st49{fill:url(#SVGID_49_);}
	.st50{fill:url(#SVGID_50_);}
	.st51{fill:url(#SVGID_51_);}
	.st52{fill:url(#SVGID_52_);}
	.st53{fill:url(#SVGID_53_);}
	.st54{fill:url(#SVGID_54_);}
	.st55{fill:url(#SVGID_55_);}
	.st56{fill:url(#SVGID_56_);}
	.st57{fill:url(#SVGID_57_);}
	.st58{fill:url(#SVGID_58_);}
	.st59{fill:url(#SVGID_59_);}
	.st60{fill:url(#SVGID_60_);}
	.st61{fill:url(#SVGID_61_);}
	.st62{fill:url(#SVGID_62_);}
	.st63{fill:url(#SVGID_63_);}
	.st64{fill:url(#SVGID_64_);}
	.st65{fill:url(#SVGID_65_);}
	.st66{fill:url(#SVGID_66_);}
	.st67{fill:url(#SVGID_67_);}
	.st68{fill:url(#SVGID_68_);}
	.st69{fill:url(#SVGID_69_);}
</style>
<g>
	<linearGradient id="SVGID_1_" gradientUnits="userSpaceOnUse" x1="286.9681" y1="110.3873" x2="286.9681" y2="41.8226">
		<stop  offset="0" style="stop-color:#F18F01"/>
		<stop  offset="1" style="stop-color:#FBB03B"/>
	</linearGradient>
	<path class="st0" d="M287.49,29.55c9.8,0,17.59,2.39,23.37,7.16c5.78,4.77,8.67,11.27,8.67,19.5c0,8.23-2.89,14.73-8.67,19.5
		c-5.78,4.77-13.57,7.16-23.37,7.16h-12.6v11.56c0,2.01-0.72,3.74-2.17,5.19c-1.44,1.44-3.22,2.17-5.32,2.17h-13V29.55H287.49z
		 M286.18,66.71c4.2,0,7.37-0.9,9.52-2.69c2.14-1.79,3.22-4.4,3.22-7.81c0-3.41-1.07-6.04-3.22-7.88c-2.15-1.84-5.32-2.76-9.52-2.76
		h-24.29l13,5.38v15.76H286.18z"/>
	<linearGradient id="SVGID_2_" gradientUnits="userSpaceOnUse" x1="353.9329" y1="110.3873" x2="353.9329" y2="41.8226">
		<stop  offset="0" style="stop-color:#F18F01"/>
		<stop  offset="1" style="stop-color:#FBB03B"/>
	</linearGradient>
	<path class="st1" d="M353.15,44.78c19.08,0,28.62,8.62,28.62,25.87v31.12h-13.66c-1.31,0-2.41-0.46-3.28-1.38
		c-0.88-0.92-1.31-2.03-1.31-3.35v-2.5c-2.89,5.43-8.4,8.14-16.54,8.14c-6.57,0-11.69-1.62-15.36-4.86
		c-3.68-3.24-5.52-7.4-5.52-12.47c0-5.34,2.04-9.45,6.11-12.34c4.07-2.89,10.31-4.33,18.71-4.33h22.06c0-0.35-1.88-0.85-5.65-1.51
		c-3.76-0.66-5.69-1.12-5.78-1.38c-1.31-4.03-5.08-6.04-11.29-6.04c-3.24,0-6.48,0.61-9.72,1.84c-1.66,0.7-3.31,0.74-4.92,0.13
		c-1.62-0.61-2.82-1.71-3.61-3.28l-3.55-7.09c3.15-2.1,6.94-3.72,11.36-4.86C344.24,45.35,348.68,44.78,353.15,44.78z M352.49,90.21
		c4.9,0,8.1-2.14,9.59-6.43v-4.86h-8.4c-5.69,0-8.53,1.88-8.53,5.65c0,1.66,0.63,3.02,1.9,4.07
		C348.31,89.69,350.13,90.21,352.49,90.21z"/>
	<linearGradient id="SVGID_3_" gradientUnits="userSpaceOnUse" x1="415.8413" y1="110.3873" x2="415.8413" y2="41.8226">
		<stop  offset="0" style="stop-color:#F18F01"/>
		<stop  offset="1" style="stop-color:#FBB03B"/>
	</linearGradient>
	<path class="st2" d="M414.46,102.69c-4.73,0-9.34-0.55-13.85-1.64c-4.51-1.09-8.16-2.47-10.96-4.14l3.28-7.62
		c0.7-1.49,1.77-2.56,3.22-3.22c1.44-0.66,2.91-0.72,4.4-0.2c4.73,1.84,9.54,2.76,14.44,2.76c5.86,0,8.8-1.27,8.8-3.81
		c0-1.05-0.59-1.86-1.77-2.43c-1.18-0.57-2.76-0.98-4.73-1.25c-1.97-0.26-4.14-0.55-6.5-0.85c-2.36-0.31-4.71-0.79-7.02-1.44
		c-2.32-0.66-4.46-1.55-6.43-2.69c-1.97-1.14-3.55-2.78-4.73-4.92c-1.18-2.14-1.77-4.75-1.77-7.81c0-5.43,2.41-9.89,7.22-13.39
		c4.81-3.5,11.47-5.25,19.96-5.25c9.01,0,16.37,1.62,22.06,4.86l-3.28,7.48c-0.7,1.49-1.82,2.56-3.35,3.22
		c-1.53,0.66-3.13,0.68-4.79,0.07c-3.33-1.05-6.83-1.58-10.5-1.58c-5.95,0-8.93,1.27-8.93,3.81c0,1.23,0.81,2.17,2.43,2.82
		c1.62,0.66,3.63,1.1,6.04,1.31c2.41,0.22,5.05,0.66,7.94,1.31c2.89,0.66,5.54,1.47,7.94,2.43c2.41,0.96,4.42,2.63,6.04,4.99
		c1.62,2.36,2.43,5.3,2.43,8.8c0,5.34-2.41,9.74-7.22,13.2C430,100.96,423.22,102.69,414.46,102.69z"/>
	<linearGradient id="SVGID_4_" gradientUnits="userSpaceOnUse" x1="472.3006" y1="110.3873" x2="472.3006" y2="41.8226">
		<stop  offset="0" style="stop-color:#F18F01"/>
		<stop  offset="1" style="stop-color:#FBB03B"/>
	</linearGradient>
	<path class="st3" d="M491.41,90.74l3.15,8.67c-3.33,2.19-7.88,3.28-13.66,3.28c-7.27,0-12.87-1.79-16.81-5.38
		c-3.94-3.59-5.91-8.93-5.91-16.02V62.51h-8.14V47.8h21.4l-13.26-5.51v-9.06h14.44c0.96,0,1.84,0.24,2.63,0.72
		c0.79,0.48,1.4,1.12,1.84,1.9c0.44,0.79,0.66,1.66,0.66,2.63v9.32h12.87v14.71h-12.87v18.51c0,2.1,0.55,3.7,1.64,4.79
		c1.09,1.1,2.52,1.64,4.27,1.64c0.61,0,1.18-0.04,1.71-0.13c1.4-0.17,2.65,0.05,3.74,0.66C490.2,88.59,490.97,89.51,491.41,90.74z"
		/>
	<linearGradient id="SVGID_5_" gradientUnits="userSpaceOnUse" x1="529.8773" y1="110.3873" x2="529.8773" y2="41.8226">
		<stop  offset="0" style="stop-color:#F18F01"/>
		<stop  offset="1" style="stop-color:#FBB03B"/>
	</linearGradient>
	<path class="st4" d="M560.21,73.8c0,0.26-0.09,1.88-0.26,4.86h-40.7c0.26,0.79,0.57,1.53,0.92,2.23c2.28,4.55,6.57,6.83,12.87,6.83
		c4.81,0,9.1-1.62,12.87-4.86l7.35,7.62c0.87,0.88,1.27,1.95,1.18,3.22c-0.09,1.27-0.66,2.3-1.71,3.08
		c-5.08,3.94-11.86,5.91-20.35,5.91c-9.8,0-17.73-2.71-23.77-8.14c-6.04-5.43-9.06-12.39-9.06-20.88c0-8.4,2.91-15.32,8.73-20.75
		c5.82-5.43,13.15-8.14,21.99-8.14c8.58,0,15.71,2.6,21.4,7.81C557.36,57.8,560.21,64.87,560.21,73.8z M519.64,65.79
		c-0.09,0.26-1.69,0.68-4.79,1.25c-3.11,0.57-4.66,1.03-4.66,1.38h31.64c-0.53-2.97-1.79-5.32-3.81-7.02
		c-2.01-1.71-4.55-2.56-7.62-2.56C525.15,58.83,521.56,61.15,519.64,65.79z"/>
	<path class="st42" d="M608.76,103.21c-11.56,0-21.07-3.52-28.56-10.57c-7.48-7.05-11.23-16.04-11.23-26.98
		c0-10.94,3.74-19.94,11.23-26.98c7.48-7.05,17-10.57,28.56-10.57c13.39,0,23.72,4.51,30.99,13.52l-9.32,8.53
		c-0.96,0.88-2.1,1.29-3.41,1.25c-1.31-0.04-2.5-0.5-3.55-1.38c-3.94-3.32-8.49-4.99-13.66-4.99c-3.94,0-7.44,0.85-10.5,2.56
		c-3.07,1.71-5.45,4.12-7.16,7.22c-1.71,3.11-2.56,6.72-2.56,10.83c0,6.13,1.86,11.09,5.58,14.9c3.72,3.81,8.6,5.71,14.64,5.71
		c6.65,0,12.3-2.8,16.94-8.4l9.06,8.01c1.14,1.05,1.71,2.36,1.71,3.94c0,1.58-0.57,2.89-1.71,3.94
		C628.8,100.06,619.79,103.21,608.76,103.21z"/>
	<path class="st42" d="M672.18,102.69c-9.19,0-16.76-2.74-22.71-8.21c-5.95-5.47-8.93-12.41-8.93-20.81c0-8.4,2.98-15.32,8.93-20.75
		c5.95-5.43,13.52-8.14,22.71-8.14s16.74,2.71,22.65,8.14c5.91,5.43,8.86,12.34,8.86,20.75c0,8.49-2.95,15.45-8.86,20.88
		C688.92,99.97,681.37,102.69,672.18,102.69z M672.18,87.06c3.41,0,6.21-1.18,8.4-3.55c2.19-2.36,3.28-5.65,3.28-9.85
		c0-4.11-1.1-7.35-3.28-9.72c-2.19-2.36-4.99-3.55-8.4-3.55c-3.41,0-6.24,1.18-8.47,3.55c-2.23,2.36-3.35,5.6-3.35,9.72
		c0,4.11,1.12,7.38,3.35,9.78C665.94,85.86,668.76,87.06,672.18,87.06z"/>
	<path class="st42" d="M774.33,25.09v71.56c0,1.4-0.48,2.6-1.44,3.61c-0.96,1.01-2.15,1.51-3.55,1.51h-13.66v-5.65
		c-3.68,4.38-9.15,6.57-16.41,6.57c-7.88,0-14.44-2.67-19.7-8.01c-5.25-5.34-7.88-12.34-7.88-21.01c0-8.67,2.63-15.65,7.88-20.94
		c5.25-5.29,11.82-7.94,19.7-7.94c8.75,0,16.32,3.85,22.71,11.55l-7.22-10.5v-15.1c0-1.58,0.55-2.91,1.64-4
		c1.09-1.09,2.43-1.64,4-1.64H774.33z M743.34,87.06c3.41,0,6.21-1.2,8.4-3.61c2.19-2.41,3.28-5.67,3.28-9.78
		c0-4.11-1.1-7.35-3.28-9.72c-2.19-2.36-4.99-3.55-8.4-3.55s-6.22,1.18-8.4,3.55c-2.19,2.36-3.28,5.6-3.28,9.72
		c0,4.2,1.09,7.48,3.28,9.85C737.13,85.88,739.93,87.06,743.34,87.06z"/>
	<path class="st42" d="M843,73.8c0,0.26-0.09,1.88-0.26,4.86h-40.7c0.26,0.79,0.57,1.53,0.92,2.23c2.27,4.55,6.57,6.83,12.87,6.83
		c4.81,0,9.1-1.62,12.87-4.86l7.35,7.62c0.87,0.88,1.27,1.95,1.18,3.22c-0.09,1.27-0.66,2.3-1.71,3.08
		c-5.08,3.94-11.86,5.91-20.35,5.91c-9.8,0-17.73-2.71-23.77-8.14c-6.04-5.43-9.06-12.39-9.06-20.88c0-8.4,2.91-15.32,8.73-20.75
		c5.82-5.43,13.15-8.14,21.99-8.14c8.58,0,15.71,2.6,21.4,7.81C840.15,57.8,843,64.87,843,73.8z M802.43,65.79
		c-0.09,0.26-1.69,0.68-4.79,1.25c-3.11,0.57-4.66,1.03-4.66,1.38h31.64c-0.53-2.97-1.79-5.32-3.81-7.02
		c-2.01-1.71-4.55-2.56-7.62-2.56C807.94,58.83,804.35,61.15,802.43,65.79z"/>
	<linearGradient id="SVGID_6_" gradientUnits="userSpaceOnUse" x1="34.3001" y1="79.3627" x2="65.6252" y2="79.3627">
		<stop  offset="0" style="stop-color:#F18F01"/>
		<stop  offset="1" style="stop-color:#FBB03B"/>
	</linearGradient>
	<polygon class="st5" points="40.95,70.35 65.63,95.03 34.3,63.7 34.3,63.7 	"/>
	<linearGradient id="SVGID_7_" gradientUnits="userSpaceOnUse" x1="63.5252" y1="21.5688" x2="89.5127" y2="21.5688">
		<stop  offset="0" style="stop-color:#F18F01"/>
		<stop  offset="1" style="stop-color:#FBB03B"/>
	</linearGradient>
	<polygon class="st6" points="72.36,43.14 89.51,25.99 80.5,16.98 63.53,0 63.53,0.18 63.53,34.3 	"/>
	<linearGradient id="SVGID_8_" gradientUnits="userSpaceOnUse" x1="17.15" y1="31.9376" x2="63.5252" y2="31.9376">
		<stop  offset="0" style="stop-color:#F18F01"/>
		<stop  offset="1" style="stop-color:#FBB03B"/>
	</linearGradient>
	<polygon class="st7" points="36.23,61.78 63.53,34.48 63.53,34.3 63.53,0.18 56.18,7.53 46.38,17.33 19.08,44.63 17.15,46.55 
		34.3,63.7 	"/>
	<linearGradient id="SVGID_9_" gradientUnits="userSpaceOnUse" x1="76.7493" y1="123.2994" x2="-3.5587" y2="42.9914">
		<stop  offset="0" style="stop-color:#F18F01"/>
		<stop  offset="1" style="stop-color:#FBB03B"/>
	</linearGradient>
	<polygon class="st8" points="40.95,70.35 34.3,63.7 34.3,63.7 17.15,46.55 1.92,61.78 0,63.7 6.65,70.35 17.15,80.85 23.8,87.5 
		49,112.7 65.36,129.06 65.63,129.33 65.98,128.98 82.34,112.61 82.78,112.18 65.63,95.03 	"/>
	<linearGradient id="SVGID_10_" gradientUnits="userSpaceOnUse" x1="160.8254" y1="32.7251" x2="226.2756" y2="32.7251">
		<stop  offset="0" style="stop-color:#F18F01"/>
		<stop  offset="1" style="stop-color:#FBB03B"/>
	</linearGradient>
	<polygon class="st9" points="162.93,34.65 162.93,36.4 185.5,58.98 191.98,65.45 226.28,65.45 219.8,58.98 209.3,48.48 
		202.65,41.83 177.45,16.63 161.09,0.26 160.83,0 160.83,34.3 162.93,36.4 	"/>
	<linearGradient id="SVGID_11_" gradientUnits="userSpaceOnUse" x1="180.5888" y1="107.7565" x2="129.4828" y2="107.7565">
		<stop  offset="0" style="stop-color:#F18F01"/>
		<stop  offset="1" style="stop-color:#FBB03B"/>
	</linearGradient>
	<polygon class="st10" points="162.93,94.85 162.93,95.03 154.09,86.19 136.94,103.34 145.95,112.35 162.93,129.33 162.93,129.15 
		162.93,129.15 162.93,94.85 	"/>
	<linearGradient id="SVGID_12_" gradientUnits="userSpaceOnUse" x1="76.8252" y1="50.5751" x2="160.8254" y2="50.5751">
		<stop  offset="0" style="stop-color:#F18F01"/>
		<stop  offset="1" style="stop-color:#FBB03B"/>
	</linearGradient>
	<polygon class="st11" points="160.48,0.35 144.11,16.71 76.83,84 93.98,101.15 160.83,34.3 160.83,0 	"/>
	<linearGradient id="SVGID_13_" gradientUnits="userSpaceOnUse" x1="245.9523" y1="28.7984" x2="147.6226" y2="127.1281">
		<stop  offset="0" style="stop-color:#F18F01"/>
		<stop  offset="1" style="stop-color:#FBB03B"/>
	</linearGradient>
	<polygon class="st12" points="191.98,65.45 192.15,65.63 190.23,67.55 162.93,94.85 162.93,129.15 170.28,121.8 180.08,112 
		207.38,84.7 209.3,82.78 224.53,67.55 226.45,65.63 226.28,65.45 	"/>
	<g>
		<path class="st42" d="M857.53,103.43c-3.4,0-6.26-1.12-8.59-3.35c-2.33-2.24-3.49-5.1-3.49-8.59c0-3.49,1.14-6.33,3.42-8.52
			c2.28-2.19,5.17-3.29,8.65-3.29s6.35,1.1,8.59,3.29c2.23,2.19,3.35,5.03,3.35,8.52c0,3.49-1.14,6.35-3.42,8.59
			C863.77,102.31,860.93,103.43,857.53,103.43z"/>
		<path class="st42" d="M884.87,38.62c-3.58,0-6.51-1.01-8.79-3.02c-2.28-2.01-3.42-4.54-3.42-7.58c0-3.04,1.14-5.57,3.42-7.58
			c2.28-2.01,5.21-3.02,8.79-3.02c2.41,0,4.56,0.43,6.44,1.27c1.88,0.85,3.31,2.06,4.29,3.62c0.98,1.57,1.48,3.38,1.48,5.43
			c0,2.06-0.49,3.91-1.48,5.57c-0.99,1.66-2.42,2.95-4.29,3.89C889.43,38.15,887.28,38.62,884.87,38.62z M874.8,94.84V45.06h13.42
			c1.88,0,3.46,0.63,4.76,1.88c1.3,1.25,1.95,2.82,1.95,4.7v50.58h-12.75c-2.06,0-3.8-0.72-5.23-2.15
			C875.52,98.64,874.8,96.9,874.8,94.84z"/>
		<path class="st42" d="M934.6,103.16c-9.39,0-17.13-2.79-23.21-8.39c-6.08-5.59-9.12-12.68-9.12-21.27s3.04-15.65,9.12-21.2
			c6.08-5.54,13.82-8.32,23.21-8.32c9.39,0,17.11,2.77,23.14,8.32c6.04,5.55,9.06,12.61,9.06,21.2c0,8.68-3.02,15.79-9.06,21.33
			C951.7,100.39,943.99,103.16,934.6,103.16z M934.6,87.19c3.49,0,6.35-1.21,8.59-3.62c2.23-2.42,3.35-5.77,3.35-10.06
			c0-4.2-1.12-7.51-3.35-9.93c-2.24-2.42-5.1-3.62-8.59-3.62c-3.49,0-6.37,1.21-8.65,3.62c-2.28,2.42-3.42,5.73-3.42,9.93
			c0,4.21,1.14,7.54,3.42,10C928.22,85.96,931.11,87.19,934.6,87.19z"/>
	</g>
</g>
</svg>
